<svg width="91" height="91" viewBox="0 0 91 91" fill="none" xmlns="http://www.w3.org/2000/svg">
<circle cx="45.5" cy="45.5" r="45.5" fill="#D9D9D9"/>
<circle cx="45.5" cy="24.5" r="15.5" fill="#888888"/>
<path d="M45.5 40L50.5889 40.3294L55.5142 41.3072L60.1176 42.9018L64.2513 45.062L67.7822 47.7185L70.597 50.7857L72.6051 54.1652L73.7421 57.7482L73.9713 61.4197L73.2854 65.0617L71.7065 68.557L69.2853 71.7934L66.0997 74.6668L62.2519 77.0848L57.8657 78.9699L53.0821 80.2612L48.0547 80.9175H42.9453L37.9179 80.2612L33.1343 78.9699L28.7481 77.0848L24.9003 74.6668L21.7147 71.7934L19.2935 68.557L17.7146 65.0617L17.0287 61.4197L17.2579 57.7482L18.3949 54.1652L20.403 50.7857L23.2178 47.7185L26.7487 45.062L30.8824 42.9018L35.4858 41.3072L40.4111 40.3294L45.5 40Z" fill="#888888"/>
</svg>
