<svg width="46" height="58" viewBox="0 0 46 58" fill="none" xmlns="http://www.w3.org/2000/svg">
<path d="M36.1428 0.422913H9.85716C7.24288 0.422913 4.73568 1.32597 2.88711 2.93342C1.03854 4.54088 2.5901e-05 6.72105 2.5901e-05 8.99433V54.7086C-0.00227268 55.212 0.148457 55.7071 0.436953 56.1436C0.725449 56.5801 1.14147 56.9426 1.64288 57.1943C2.14237 57.445 2.70897 57.5771 3.28574 57.5771C3.8625 57.5771 4.4291 57.445 4.92859 57.1943L23 48.1086L41.0714 57.1943C41.5722 57.4411 42.1387 57.5692 42.7143 57.5657C43.2898 57.5692 43.8564 57.4411 44.3571 57.1943C44.8585 56.9426 45.2745 56.5801 45.563 56.1436C45.8515 55.7071 46.0023 55.212 46 54.7086V8.99433C46 6.72105 44.9615 4.54088 43.1129 2.93342C41.2643 1.32597 38.7571 0.422913 36.1428 0.422913ZM39.4286 49.7657L24.6429 42.3372C24.1434 42.0864 23.5768 41.9544 23 41.9544C22.4232 41.9544 21.8566 42.0864 21.3571 42.3372L6.57145 49.7657V8.99433C6.57145 8.23657 6.91762 7.50985 7.53381 6.97403C8.15 6.43821 8.98573 6.13719 9.85716 6.13719H36.1428C37.0143 6.13719 37.85 6.43821 38.4662 6.97403C39.0824 7.50985 39.4286 8.23657 39.4286 8.99433V49.7657Z" fill="#E96B35"/>
</svg>
